<svg width="224" height="40" viewBox="0 0 224 40" fill="none" xmlns="http://www.w3.org/2000/svg">
<g clip-path="url(#clip0_4833_739)">
<rect width="224" height="40" rx="12" fill="#EDEEF2"/>
<path d="M203.333 24.6667C206.279 24.6667 208.667 22.2789 208.667 19.3333C208.667 16.3878 206.279 14 203.333 14C200.388 14 198 16.3878 198 19.3333C198 22.2789 200.388 24.6667 203.333 24.6667Z" stroke="#83859C" stroke-width="1.5" stroke-linecap="round" stroke-linejoin="round"/>
<path d="M210 26L207.1 23.1" stroke="#83859C" stroke-width="1.5" stroke-linecap="round" stroke-linejoin="round"/>
<path d="M16.368 25.112C15.668 25.112 14.996 25.0093 14.352 24.804C13.7173 24.5893 13.2087 24.3047 12.826 23.95C12.686 23.8193 12.616 23.656 12.616 23.46C12.616 23.3293 12.6533 23.2173 12.728 23.124C12.8027 23.0213 12.8913 22.97 12.994 22.97C13.1153 22.97 13.246 23.0213 13.386 23.124C14.254 23.796 15.2433 24.132 16.354 24.132C17.1567 24.132 17.7727 23.978 18.202 23.67C18.6313 23.362 18.846 22.9233 18.846 22.354C18.846 22.0273 18.7433 21.766 18.538 21.57C18.3327 21.3647 18.062 21.2013 17.726 21.08C17.39 20.9587 16.9373 20.8327 16.368 20.702C15.6027 20.5247 14.9727 20.338 14.478 20.142C13.9927 19.946 13.596 19.666 13.288 19.302C12.9893 18.938 12.84 18.462 12.84 17.874C12.84 17.314 12.9893 16.8193 13.288 16.39C13.596 15.9513 14.0207 15.6153 14.562 15.382C15.1127 15.1393 15.738 15.018 16.438 15.018C17.0913 15.018 17.698 15.1207 18.258 15.326C18.8273 15.522 19.3033 15.8067 19.686 16.18C19.8353 16.3293 19.91 16.4927 19.91 16.67C19.91 16.8007 19.8727 16.9173 19.798 17.02C19.7233 17.1133 19.6347 17.16 19.532 17.16C19.4293 17.16 19.294 17.1087 19.126 17.006C18.6687 16.6327 18.244 16.3713 17.852 16.222C17.46 16.0727 16.9887 15.998 16.438 15.998C15.6633 15.998 15.0613 16.1613 14.632 16.488C14.2027 16.8053 13.988 17.2533 13.988 17.832C13.988 18.3267 14.1747 18.7 14.548 18.952C14.9307 19.1947 15.514 19.4093 16.298 19.596C17.1473 19.8013 17.8147 19.9927 18.3 20.17C18.7853 20.338 19.1867 20.5947 19.504 20.94C19.8307 21.2853 19.994 21.7473 19.994 22.326C19.994 22.8767 19.84 23.362 19.532 23.782C19.2333 24.202 18.8087 24.5287 18.258 24.762C17.7073 24.9953 17.0773 25.112 16.368 25.112ZM27.0686 23.418C27.1713 23.418 27.26 23.46 27.3346 23.544C27.4093 23.628 27.4466 23.7353 27.4466 23.866C27.4466 24.0993 27.2833 24.314 26.9566 24.51C26.6206 24.706 26.266 24.8553 25.8926 24.958C25.5193 25.0513 25.1553 25.098 24.8006 25.098C23.746 25.098 22.9106 24.7853 22.2946 24.16C21.688 23.5347 21.3846 22.6713 21.3846 21.57C21.3846 20.87 21.52 20.254 21.7906 19.722C22.0613 19.1807 22.4393 18.7607 22.9246 18.462C23.4193 18.1633 23.9793 18.014 24.6046 18.014C25.4913 18.014 26.196 18.3033 26.7186 18.882C27.2413 19.4607 27.5026 20.2447 27.5026 21.234C27.5026 21.4207 27.4653 21.556 27.3906 21.64C27.316 21.724 27.1946 21.766 27.0266 21.766H22.5186C22.6026 23.3713 23.3633 24.174 24.8006 24.174C25.1646 24.174 25.4773 24.1273 25.7386 24.034C26 23.9313 26.28 23.796 26.5786 23.628C26.8213 23.488 26.9846 23.418 27.0686 23.418ZM24.6186 18.896C24.0213 18.896 23.5406 19.0827 23.1766 19.456C22.822 19.8293 22.612 20.3567 22.5466 21.038H26.5086C26.49 20.3473 26.3173 19.82 25.9906 19.456C25.664 19.0827 25.2066 18.896 24.6186 18.896ZM32.0594 18.014C33.7674 18.014 34.6214 18.91 34.6214 20.702V24.51C34.6214 24.678 34.5701 24.8133 34.4674 24.916C34.3741 25.0187 34.2434 25.07 34.0754 25.07C33.9074 25.07 33.7721 25.0187 33.6694 24.916C33.5668 24.8133 33.5154 24.678 33.5154 24.51V23.838C33.3381 24.2393 33.0674 24.552 32.7034 24.776C32.3394 24.9907 31.9194 25.098 31.4434 25.098C31.0048 25.098 30.5988 25.0093 30.2254 24.832C29.8614 24.6547 29.5721 24.4073 29.3574 24.09C29.1428 23.7727 29.0354 23.4227 29.0354 23.04C29.0354 22.5267 29.1661 22.13 29.4274 21.85C29.6888 21.5607 30.1181 21.3553 30.7154 21.234C31.3128 21.1033 32.1434 21.038 33.2074 21.038H33.5154V20.576C33.5154 20.016 33.3988 19.6053 33.1654 19.344C32.9414 19.0827 32.5728 18.952 32.0594 18.952C31.4248 18.952 30.7808 19.1247 30.1274 19.47C29.8754 19.6287 29.6981 19.708 29.5954 19.708C29.4834 19.708 29.3901 19.666 29.3154 19.582C29.2408 19.498 29.2034 19.3907 29.2034 19.26C29.2034 19.1293 29.2408 19.0173 29.3154 18.924C29.3994 18.8213 29.5301 18.7187 29.7074 18.616C30.0341 18.4293 30.4028 18.2847 30.8134 18.182C31.2334 18.07 31.6488 18.014 32.0594 18.014ZM31.5974 24.202C32.1574 24.202 32.6148 24.0153 32.9694 23.642C33.3334 23.2593 33.5154 22.7693 33.5154 22.172V21.766H33.2634C32.4421 21.766 31.8168 21.8033 31.3874 21.878C30.9581 21.9433 30.6501 22.06 30.4634 22.228C30.2861 22.3867 30.1974 22.6247 30.1974 22.942C30.1974 23.306 30.3281 23.6093 30.5894 23.852C30.8601 24.0853 31.1961 24.202 31.5974 24.202ZM40.1713 18.042C40.5633 18.014 40.7593 18.1727 40.7593 18.518C40.7593 18.6673 40.7173 18.7887 40.6333 18.882C40.5493 18.966 40.4046 19.0173 40.1993 19.036L39.7793 19.078C39.1539 19.134 38.6873 19.358 38.3793 19.75C38.0806 20.1327 37.9313 20.5853 37.9313 21.108V24.51C37.9313 24.6967 37.8799 24.8367 37.7773 24.93C37.6746 25.0233 37.5393 25.07 37.3713 25.07C37.2033 25.07 37.0633 25.0233 36.9513 24.93C36.8486 24.8273 36.7973 24.6873 36.7973 24.51V18.602C36.7973 18.4247 36.8533 18.2893 36.9653 18.196C37.0773 18.0933 37.2126 18.042 37.3713 18.042C37.5206 18.042 37.6466 18.0933 37.7493 18.196C37.8519 18.2893 37.9033 18.42 37.9033 18.588V19.372C38.0993 18.9613 38.3746 18.6487 38.7293 18.434C39.0933 18.2193 39.5086 18.0933 39.9753 18.056L40.1713 18.042ZM44.5101 25.098C43.8754 25.098 43.3108 24.9533 42.8161 24.664C42.3308 24.3747 41.9528 23.964 41.6821 23.432C41.4208 22.9 41.2901 22.284 41.2901 21.584C41.2901 20.884 41.4254 20.2633 41.6961 19.722C41.9761 19.1807 42.3634 18.7607 42.8581 18.462C43.3528 18.1633 43.9221 18.014 44.5661 18.014C44.9208 18.014 45.2708 18.0653 45.6161 18.168C45.9708 18.2613 46.2788 18.4013 46.5401 18.588C46.7081 18.7 46.8248 18.812 46.8901 18.924C46.9648 19.0267 47.0021 19.1433 47.0021 19.274C47.0021 19.4047 46.9648 19.512 46.8901 19.596C46.8248 19.68 46.7361 19.722 46.6241 19.722C46.5588 19.722 46.4888 19.7033 46.4141 19.666C46.3394 19.6287 46.2741 19.5913 46.2181 19.554C46.1714 19.5167 46.1388 19.4933 46.1201 19.484C45.8774 19.3253 45.6441 19.1993 45.4201 19.106C45.2054 19.0127 44.9394 18.966 44.6221 18.966C43.9408 18.966 43.4088 19.1993 43.0261 19.666C42.6528 20.1233 42.4661 20.7627 42.4661 21.584C42.4661 22.4053 42.6528 23.04 43.0261 23.488C43.4088 23.936 43.9408 24.16 44.6221 24.16C44.9394 24.16 45.2101 24.1133 45.4341 24.02C45.6674 23.9267 45.9008 23.8007 46.1341 23.642C46.2368 23.5767 46.3348 23.5207 46.4281 23.474C46.5214 23.4273 46.6008 23.404 46.6661 23.404C46.7688 23.404 46.8528 23.446 46.9181 23.53C46.9928 23.614 47.0301 23.7213 47.0301 23.852C47.0301 23.9733 46.9974 24.0853 46.9321 24.188C46.8668 24.2813 46.7454 24.3887 46.5681 24.51C46.3068 24.6873 45.9894 24.832 45.6161 24.944C45.2521 25.0467 44.8834 25.098 44.5101 25.098ZM51.9393 18.014C52.742 18.014 53.3486 18.2427 53.7593 18.7C54.17 19.148 54.3753 19.82 54.3753 20.716V24.51C54.3753 24.6873 54.324 24.8273 54.2213 24.93C54.1186 25.0233 53.9833 25.07 53.8153 25.07C53.638 25.07 53.498 25.0233 53.3953 24.93C53.2926 24.8273 53.2413 24.6873 53.2413 24.51V20.744C53.2413 20.1373 53.1153 19.6893 52.8633 19.4C52.6206 19.1107 52.2286 18.966 51.6873 18.966C51.062 18.966 50.5626 19.1573 50.1893 19.54C49.816 19.9227 49.6293 20.4407 49.6293 21.094V24.51C49.6293 24.6873 49.578 24.8273 49.4753 24.93C49.382 25.0233 49.2466 25.07 49.0693 25.07C48.892 25.07 48.752 25.0233 48.6493 24.93C48.5466 24.8273 48.4953 24.6873 48.4953 24.51V15.606C48.4953 15.4473 48.5466 15.3167 48.6493 15.214C48.7613 15.1113 48.9013 15.06 49.0693 15.06C49.2466 15.06 49.382 15.1113 49.4753 15.214C49.578 15.3073 49.6293 15.438 49.6293 15.606V19.274C49.8533 18.8633 50.166 18.5507 50.5673 18.336C50.9686 18.1213 51.426 18.014 51.9393 18.014Z" fill="#83859C"/>
</g>
<defs>
<clipPath id="clip0_4833_739">
<rect width="224" height="40" fill="white"/>
</clipPath>
</defs>
</svg>
